STARTFONT 2.1
FONT -FontForge-Glacial Indifference-Regular-R-Normal--12-120-75-75-P-56-ISO10646-1
SIZE 12 75 75
FONTBOUNDINGBOX 20 15 -8 -3
COMMENT "Generated by fontforge, http://fontforge.sourceforge.net"
COMMENT "Copyright \(c\) 2020 by Alfredo Marco Pradil. All rights reserved."
STARTPROPERTIES 39
FOUNDRY "FontForge"
FAMILY_NAME "Glacial Indifference"
WEIGHT_NAME "Regular"
SLANT "R"
SETWIDTH_NAME "Normal"
ADD_STYLE_NAME ""
PIXEL_SIZE 12
POINT_SIZE 120
RESOLUTION_X 75
RESOLUTION_Y 75
SPACING "P"
AVERAGE_WIDTH 56
CHARSET_REGISTRY "ISO10646"
CHARSET_ENCODING "1"
FONTNAME_REGISTRY ""
CHARSET_COLLECTIONS "ISO8859-2 ISO8859-9 ISO8859-4 ISO10646-1"
FONT_NAME "GlacialIndifference-Regular"
FACE_NAME "Glacial Indifference Regular"
COPYRIGHT "Copyright \(c\) 2020 by Alfredo Marco Pradil. All rights reserved."
FONT_VERSION "001.310"
FONT_ASCENT 9
FONT_DESCENT 3
UNDERLINE_POSITION -1
UNDERLINE_THICKNESS 1
X_HEIGHT 5
CAP_HEIGHT 8
RAW_ASCENT 750
RAW_DESCENT 250
NORM_SPACE 3
RELATIVE_WEIGHT 40
RELATIVE_SETWIDTH 50
SUPERSCRIPT_X 0
SUPERSCRIPT_Y 4
SUPERSCRIPT_SIZE 7
SUBSCRIPT_X 0
SUBSCRIPT_Y 0
SUBSCRIPT_SIZE 7
AVG_LOWERCASE_WIDTH 57
AVG_UPPERCASE_WIDTH 71
ENDPROPERTIES
CHARS 365
STARTCHAR nonmarkingreturn
ENCODING 13
SWIDTH 0 0
DWIDTH 0 0
BBX 1 1 0 0
BITMAP
00
ENDCHAR
STARTCHAR space
ENCODING 32
SWIDTH 209 0
DWIDTH 3 0
BBX 1 1 0 0
BITMAP
00
ENDCHAR
STARTCHAR exclam
ENCODING 33
SWIDTH 271 0
DWIDTH 3 0
BBX 1 9 1 0
BITMAP
80
80
80
80
80
80
00
00
80
ENDCHAR
STARTCHAR quotedbl
ENCODING 34
SWIDTH 437 0
DWIDTH 5 0
BBX 3 4 1 5
BITMAP
A0
A0
A0
A0
ENDCHAR
STARTCHAR numbersign
ENCODING 35
SWIDTH 585 0
DWIDTH 7 0
BBX 7 9 0 0
BITMAP
24
28
7E
28
28
FC
48
48
48
ENDCHAR
STARTCHAR dollar
ENCODING 36
SWIDTH 625 0
DWIDTH 8 0
BBX 6 10 1 -1
BITMAP
78
A8
A0
E0
30
2C
24
A4
78
20
ENDCHAR
STARTCHAR percent
ENCODING 37
SWIDTH 732 0
DWIDTH 9 0
BBX 7 9 1 0
BITMAP
C8
A8
A8
D0
10
14
2A
2A
46
ENDCHAR
STARTCHAR ampersand
ENCODING 38
SWIDTH 645 0
DWIDTH 8 0
BBX 6 9 1 0
BITMAP
70
90
50
60
60
94
9C
98
E4
ENDCHAR
STARTCHAR quotesingle
ENCODING 39
SWIDTH 243 0
DWIDTH 3 0
BBX 1 4 1 5
BITMAP
80
80
80
80
ENDCHAR
STARTCHAR parenleft
ENCODING 40
SWIDTH 251 0
DWIDTH 3 0
BBX 2 12 1 -3
BITMAP
40
80
80
80
80
80
80
80
80
80
80
40
ENDCHAR
STARTCHAR parenright
ENCODING 41
SWIDTH 251 0
DWIDTH 3 0
BBX 2 12 0 -3
BITMAP
80
40
40
40
40
40
40
40
40
40
40
80
ENDCHAR
STARTCHAR asterisk
ENCODING 42
SWIDTH 475 0
DWIDTH 6 0
BBX 4 4 1 5
BITMAP
40
D0
60
A0
ENDCHAR
STARTCHAR plus
ENCODING 43
SWIDTH 486 0
DWIDTH 6 0
BBX 4 3 1 1
BITMAP
40
F0
40
ENDCHAR
STARTCHAR comma
ENCODING 44
SWIDTH 276 0
DWIDTH 3 0
BBX 1 3 1 -2
BITMAP
80
80
80
ENDCHAR
STARTCHAR hyphen
ENCODING 45
SWIDTH 401 0
DWIDTH 5 0
BBX 3 1 1 2
BITMAP
E0
ENDCHAR
STARTCHAR period
ENCODING 46
SWIDTH 289 0
DWIDTH 3 0
BBX 1 1 1 0
BITMAP
80
ENDCHAR
STARTCHAR slash
ENCODING 47
SWIDTH 449 0
DWIDTH 5 0
BBX 5 11 0 -2
BITMAP
08
08
10
10
10
20
20
40
40
40
80
ENDCHAR
STARTCHAR zero
ENCODING 48
SWIDTH 569 0
DWIDTH 7 0
BBX 5 9 1 0
BITMAP
70
88
88
88
88
88
88
88
70
ENDCHAR
STARTCHAR one
ENCODING 49
SWIDTH 569 0
DWIDTH 7 0
BBX 2 9 2 0
BITMAP
C0
40
40
40
40
40
40
40
40
ENDCHAR
STARTCHAR two
ENCODING 50
SWIDTH 569 0
DWIDTH 7 0
BBX 5 9 1 0
BITMAP
70
88
88
08
10
10
20
40
F8
ENDCHAR
STARTCHAR three
ENCODING 51
SWIDTH 569 0
DWIDTH 7 0
BBX 5 9 1 0
BITMAP
F0
20
20
70
08
08
88
88
70
ENDCHAR
STARTCHAR four
ENCODING 52
SWIDTH 569 0
DWIDTH 7 0
BBX 7 9 0 0
BITMAP
0C
14
14
24
24
44
FE
04
04
ENDCHAR
STARTCHAR five
ENCODING 53
SWIDTH 569 0
DWIDTH 7 0
BBX 5 9 1 0
BITMAP
78
40
80
F0
08
08
88
88
70
ENDCHAR
STARTCHAR six
ENCODING 54
SWIDTH 569 0
DWIDTH 7 0
BBX 5 9 1 0
BITMAP
10
20
20
70
88
88
88
88
70
ENDCHAR
STARTCHAR seven
ENCODING 55
SWIDTH 569 0
DWIDTH 7 0
BBX 5 9 1 0
BITMAP
F8
08
10
10
20
20
20
40
40
ENDCHAR
STARTCHAR eight
ENCODING 56
SWIDTH 569 0
DWIDTH 7 0
BBX 5 9 1 0
BITMAP
70
88
88
90
70
88
88
88
70
ENDCHAR
STARTCHAR nine
ENCODING 57
SWIDTH 569 0
DWIDTH 7 0
BBX 5 9 1 0
BITMAP
70
88
88
88
88
70
20
60
40
ENDCHAR
STARTCHAR colon
ENCODING 58
SWIDTH 275 0
DWIDTH 3 0
BBX 1 6 1 0
BITMAP
80
00
00
00
00
80
ENDCHAR
STARTCHAR semicolon
ENCODING 59
SWIDTH 280 0
DWIDTH 3 0
BBX 1 6 1 -1
BITMAP
80
00
00
00
80
80
ENDCHAR
STARTCHAR less
ENCODING 60
SWIDTH 547 0
DWIDTH 7 0
BBX 5 5 1 0
BITMAP
18
60
80
60
18
ENDCHAR
STARTCHAR equal
ENCODING 61
SWIDTH 667 0
DWIDTH 8 0
BBX 6 3 1 1
BITMAP
FC
00
FC
ENDCHAR
STARTCHAR greater
ENCODING 62
SWIDTH 547 0
DWIDTH 7 0
BBX 5 5 1 0
BITMAP
80
70
08
70
80
ENDCHAR
STARTCHAR question
ENCODING 63
SWIDTH 428 0
DWIDTH 5 0
BBX 5 9 0 0
BITMAP
70
88
08
10
20
20
00
00
20
ENDCHAR
STARTCHAR at
ENCODING 64
SWIDTH 799 0
DWIDTH 10 0
BBX 8 9 1 -2
BITMAP
3C
42
82
9D
93
93
9D
40
3E
ENDCHAR
STARTCHAR A
ENCODING 65
SWIDTH 624 0
DWIDTH 7 0
BBX 7 8 0 0
BITMAP
10
18
28
28
44
7C
42
82
ENDCHAR
STARTCHAR B
ENCODING 66
SWIDTH 577 0
DWIDTH 7 0
BBX 5 9 1 0
BITMAP
F0
88
88
88
F0
88
88
88
F8
ENDCHAR
STARTCHAR C
ENCODING 67
SWIDTH 736 0
DWIDTH 9 0
BBX 7 9 1 0
BITMAP
3C
42
82
80
80
80
82
42
3C
ENDCHAR
STARTCHAR D
ENCODING 68
SWIDTH 654 0
DWIDTH 8 0
BBX 6 9 1 0
BITMAP
F0
8C
84
84
84
84
84
8C
F0
ENDCHAR
STARTCHAR E
ENCODING 69
SWIDTH 542 0
DWIDTH 7 0
BBX 5 9 1 0
BITMAP
F8
80
80
80
F8
80
80
80
F8
ENDCHAR
STARTCHAR F
ENCODING 70
SWIDTH 526 0
DWIDTH 6 0
BBX 5 9 1 0
BITMAP
F8
80
80
80
F8
80
80
80
80
ENDCHAR
STARTCHAR G
ENCODING 71
SWIDTH 755 0
DWIDTH 9 0
BBX 8 9 1 0
BITMAP
3C
42
82
80
80
8F
82
C2
3C
ENDCHAR
STARTCHAR H
ENCODING 72
SWIDTH 630 0
DWIDTH 8 0
BBX 5 9 1 0
BITMAP
88
88
88
88
F8
88
88
88
88
ENDCHAR
STARTCHAR I
ENCODING 73
SWIDTH 251 0
DWIDTH 3 0
BBX 1 9 1 0
BITMAP
80
80
80
80
80
80
80
80
80
ENDCHAR
STARTCHAR J
ENCODING 74
SWIDTH 379 0
DWIDTH 5 0
BBX 4 9 0 0
BITMAP
10
10
10
10
10
10
10
20
E0
ENDCHAR
STARTCHAR K
ENCODING 75
SWIDTH 555 0
DWIDTH 7 0
BBX 5 9 1 0
BITMAP
88
90
A0
A0
C0
A0
B0
90
88
ENDCHAR
STARTCHAR L
ENCODING 76
SWIDTH 418 0
DWIDTH 5 0
BBX 4 9 1 0
BITMAP
80
80
80
80
80
80
80
80
F0
ENDCHAR
STARTCHAR M
ENCODING 77
SWIDTH 819 0
DWIDTH 10 0
BBX 9 8 0 0
BITMAP
2100
2100
6300
5300
5480
4C80
4C80
8880
ENDCHAR
STARTCHAR N
ENCODING 78
SWIDTH 630 0
DWIDTH 8 0
BBX 5 9 1 0
BITMAP
88
88
C8
A8
A8
98
88
88
88
ENDCHAR
STARTCHAR O
ENCODING 79
SWIDTH 788 0
DWIDTH 9 0
BBX 8 9 1 0
BITMAP
3C
C2
81
81
81
81
81
C2
3C
ENDCHAR
STARTCHAR P
ENCODING 80
SWIDTH 557 0
DWIDTH 7 0
BBX 5 9 1 0
BITMAP
F0
88
88
88
F0
80
80
80
80
ENDCHAR
STARTCHAR Q
ENCODING 81
SWIDTH 803 0
DWIDTH 10 0
BBX 8 9 1 0
BITMAP
3C
42
81
81
81
81
81
C2
7F
ENDCHAR
STARTCHAR R
ENCODING 82
SWIDTH 587 0
DWIDTH 7 0
BBX 5 9 1 0
BITMAP
F0
88
88
88
F0
A0
90
88
88
ENDCHAR
STARTCHAR S
ENCODING 83
SWIDTH 590 0
DWIDTH 7 0
BBX 7 9 0 0
BITMAP
38
44
40
40
38
04
82
44
3C
ENDCHAR
STARTCHAR T
ENCODING 84
SWIDTH 430 0
DWIDTH 5 0
BBX 5 9 0 0
BITMAP
F8
20
20
20
20
20
20
20
20
ENDCHAR
STARTCHAR U
ENCODING 85
SWIDTH 607 0
DWIDTH 7 0
BBX 5 9 1 0
BITMAP
88
88
88
88
88
88
88
88
70
ENDCHAR
STARTCHAR V
ENCODING 86
SWIDTH 624 0
DWIDTH 7 0
BBX 7 8 0 1
BITMAP
82
42
44
44
28
28
18
10
ENDCHAR
STARTCHAR W
ENCODING 87
SWIDTH 819 0
DWIDTH 10 0
BBX 9 8 0 1
BITMAP
8880
4C80
4C80
5480
5300
6300
2100
2100
ENDCHAR
STARTCHAR X
ENCODING 88
SWIDTH 603 0
DWIDTH 7 0
BBX 6 9 1 0
BITMAP
84
88
50
50
20
50
50
88
84
ENDCHAR
STARTCHAR Y
ENCODING 89
SWIDTH 602 0
DWIDTH 7 0
BBX 7 9 0 0
BITMAP
82
44
28
28
10
10
10
10
10
ENDCHAR
STARTCHAR Z
ENCODING 90
SWIDTH 573 0
DWIDTH 7 0
BBX 6 9 0 0
BITMAP
FC
04
08
18
10
20
20
40
7C
ENDCHAR
STARTCHAR bracketleft
ENCODING 91
SWIDTH 284 0
DWIDTH 3 0
BBX 2 12 1 -3
BITMAP
C0
80
80
80
80
80
80
80
80
80
80
C0
ENDCHAR
STARTCHAR backslash
ENCODING 92
SWIDTH 449 0
DWIDTH 5 0
BBX 5 11 0 -2
BITMAP
80
80
40
40
20
20
20
10
10
08
08
ENDCHAR
STARTCHAR bracketright
ENCODING 93
SWIDTH 284 0
DWIDTH 3 0
BBX 2 12 0 -3
BITMAP
C0
40
40
40
40
40
40
40
40
40
40
C0
ENDCHAR
STARTCHAR asciicircum
ENCODING 94
SWIDTH 554 0
DWIDTH 7 0
BBX 5 4 1 4
BITMAP
60
50
90
88
ENDCHAR
STARTCHAR underscore
ENCODING 95
SWIDTH 682 0
DWIDTH 8 0
BBX 6 1 1 -2
BITMAP
FC
ENDCHAR
STARTCHAR grave
ENCODING 96
SWIDTH 220 0
DWIDTH 3 0
BBX 2 2 0 7
BITMAP
80
40
ENDCHAR
STARTCHAR a
ENCODING 97
SWIDTH 559 0
DWIDTH 7 0
BBX 6 6 0 0
BITMAP
34
4C
84
84
44
7C
ENDCHAR
STARTCHAR b
ENCODING 98
SWIDTH 559 0
DWIDTH 7 0
BBX 5 9 1 0
BITMAP
80
80
80
F0
88
88
88
88
F0
ENDCHAR
STARTCHAR c
ENCODING 99
SWIDTH 514 0
DWIDTH 6 0
BBX 6 6 0 0
BITMAP
38
44
80
80
44
38
ENDCHAR
STARTCHAR d
ENCODING 100
SWIDTH 559 0
DWIDTH 7 0
BBX 6 9 0 0
BITMAP
04
04
04
34
4C
84
84
44
7C
ENDCHAR
STARTCHAR e
ENCODING 101
SWIDTH 526 0
DWIDTH 6 0
BBX 6 6 0 0
BITMAP
38
44
FC
80
44
38
ENDCHAR
STARTCHAR f
ENCODING 102
SWIDTH 290 0
DWIDTH 3 0
BBX 3 9 0 0
BITMAP
60
40
40
E0
40
40
40
40
40
ENDCHAR
STARTCHAR g
ENCODING 103
SWIDTH 559 0
DWIDTH 7 0
BBX 6 9 0 -3
BITMAP
34
4C
84
84
44
7C
04
44
78
ENDCHAR
STARTCHAR h
ENCODING 104
SWIDTH 509 0
DWIDTH 6 0
BBX 4 9 1 0
BITMAP
80
80
80
F0
90
90
90
90
90
ENDCHAR
STARTCHAR i
ENCODING 105
SWIDTH 215 0
DWIDTH 3 0
BBX 1 8 1 0
BITMAP
80
00
80
80
80
80
80
80
ENDCHAR
STARTCHAR j
ENCODING 106
SWIDTH 215 0
DWIDTH 3 0
BBX 2 11 0 -3
BITMAP
40
00
40
40
40
40
40
40
40
40
80
ENDCHAR
STARTCHAR k
ENCODING 107
SWIDTH 428 0
DWIDTH 5 0
BBX 4 9 1 0
BITMAP
80
80
80
B0
A0
C0
C0
A0
90
ENDCHAR
STARTCHAR l
ENCODING 108
SWIDTH 215 0
DWIDTH 3 0
BBX 1 9 1 0
BITMAP
80
80
80
80
80
80
80
80
80
ENDCHAR
STARTCHAR m
ENCODING 109
SWIDTH 765 0
DWIDTH 9 0
BBX 7 5 1 1
BITMAP
FE
92
92
92
92
ENDCHAR
STARTCHAR n
ENCODING 110
SWIDTH 511 0
DWIDTH 6 0
BBX 4 6 1 0
BITMAP
F0
90
90
90
90
90
ENDCHAR
STARTCHAR o
ENCODING 111
SWIDTH 523 0
DWIDTH 6 0
BBX 6 6 0 0
BITMAP
38
44
84
84
44
38
ENDCHAR
STARTCHAR p
ENCODING 112
SWIDTH 559 0
DWIDTH 7 0
BBX 5 9 1 -3
BITMAP
F0
88
88
88
88
F0
80
80
80
ENDCHAR
STARTCHAR q
ENCODING 113
SWIDTH 559 0
DWIDTH 7 0
BBX 6 9 0 -3
BITMAP
34
4C
84
84
44
7C
04
04
04
ENDCHAR
STARTCHAR r
ENCODING 114
SWIDTH 307 0
DWIDTH 4 0
BBX 3 6 1 0
BITMAP
E0
80
80
80
80
80
ENDCHAR
STARTCHAR s
ENCODING 115
SWIDTH 426 0
DWIDTH 5 0
BBX 5 6 0 0
BITMAP
70
80
70
18
88
70
ENDCHAR
STARTCHAR t
ENCODING 116
SWIDTH 300 0
DWIDTH 4 0
BBX 4 8 0 0
BITMAP
40
40
F0
40
40
40
40
40
ENDCHAR
STARTCHAR u
ENCODING 117
SWIDTH 511 0
DWIDTH 6 0
BBX 4 6 1 0
BITMAP
90
90
90
90
90
F0
ENDCHAR
STARTCHAR v
ENCODING 118
SWIDTH 415 0
DWIDTH 5 0
BBX 5 6 0 0
BITMAP
88
50
50
60
20
20
ENDCHAR
STARTCHAR w
ENCODING 119
SWIDTH 711 0
DWIDTH 9 0
BBX 8 5 0 1
BITMAP
89
59
5A
26
24
ENDCHAR
STARTCHAR x
ENCODING 120
SWIDTH 421 0
DWIDTH 5 0
BBX 5 6 0 0
BITMAP
88
50
20
20
50
88
ENDCHAR
STARTCHAR y
ENCODING 121
SWIDTH 431 0
DWIDTH 5 0
BBX 5 9 0 -3
BITMAP
88
48
50
30
20
20
40
40
40
ENDCHAR
STARTCHAR z
ENCODING 122
SWIDTH 460 0
DWIDTH 6 0
BBX 5 6 0 0
BITMAP
F8
10
30
20
40
F8
ENDCHAR
STARTCHAR braceleft
ENCODING 123
SWIDTH 267 0
DWIDTH 3 0
BBX 3 12 0 -3
BITMAP
60
40
40
40
40
40
80
40
40
40
40
60
ENDCHAR
STARTCHAR bar
ENCODING 124
SWIDTH 272 0
DWIDTH 3 0
BBX 1 11 1 -2
BITMAP
80
80
80
80
80
80
80
80
80
80
80
ENDCHAR
STARTCHAR braceright
ENCODING 125
SWIDTH 267 0
DWIDTH 3 0
BBX 3 12 0 -3
BITMAP
C0
40
40
40
40
40
20
40
40
40
40
C0
ENDCHAR
STARTCHAR asciitilde
ENCODING 126
SWIDTH 516 0
DWIDTH 6 0
BBX 4 1 1 2
BITMAP
F0
ENDCHAR
STARTCHAR uni00A0
ENCODING 160
SWIDTH 270 0
DWIDTH 3 0
BBX 1 1 0 0
BITMAP
00
ENDCHAR
STARTCHAR exclamdown
ENCODING 161
SWIDTH 287 0
DWIDTH 3 0
BBX 1 8 1 -2
BITMAP
80
00
00
80
80
80
80
80
ENDCHAR
STARTCHAR cent
ENCODING 162
SWIDTH 566 0
DWIDTH 7 0
BBX 5 8 1 -1
BITMAP
20
70
A8
A0
A0
A8
70
20
ENDCHAR
STARTCHAR sterling
ENCODING 163
SWIDTH 617 0
DWIDTH 7 0
BBX 6 9 1 0
BITMAP
38
44
40
80
F0
80
80
80
F8
ENDCHAR
STARTCHAR yen
ENCODING 165
SWIDTH 602 0
DWIDTH 7 0
BBX 7 9 0 0
BITMAP
82
44
24
28
7C
10
7C
10
10
ENDCHAR
STARTCHAR dieresis
ENCODING 168
SWIDTH 356 0
DWIDTH 4 0
BBX 3 1 1 6
BITMAP
E0
ENDCHAR
STARTCHAR copyright
ENCODING 169
SWIDTH 821 0
DWIDTH 10 0
BBX 8 9 1 0
BITMAP
18
66
99
A5
C1
A1
99
42
3C
ENDCHAR
STARTCHAR guillemotleft
ENCODING 171
SWIDTH 506 0
DWIDTH 6 0
BBX 4 4 1 1
BITMAP
90
90
A0
90
ENDCHAR
STARTCHAR registered
ENCODING 174
SWIDTH 564 0
DWIDTH 7 0
BBX 5 5 1 4
BITMAP
70
E8
E8
88
F0
ENDCHAR
STARTCHAR macron
ENCODING 175
SWIDTH 426 0
DWIDTH 5 0
BBX 3 1 1 6
BITMAP
E0
ENDCHAR
STARTCHAR degree
ENCODING 176
SWIDTH 481 0
DWIDTH 6 0
BBX 4 4 1 5
BITMAP
E0
90
90
E0
ENDCHAR
STARTCHAR plusminus
ENCODING 177
SWIDTH 506 0
DWIDTH 6 0
BBX 4 5 1 1
BITMAP
40
F0
40
00
F0
ENDCHAR
STARTCHAR acute
ENCODING 180
SWIDTH 221 0
DWIDTH 3 0
BBX 1 1 1 8
BITMAP
80
ENDCHAR
STARTCHAR paragraph
ENCODING 182
SWIDTH 524 0
DWIDTH 6 0
BBX 4 11 1 -3
BITMAP
70
F0
F0
F0
F0
30
30
30
30
30
30
ENDCHAR
STARTCHAR periodcentered
ENCODING 183
SWIDTH 326 0
DWIDTH 4 0
BBX 2 2 1 3
BITMAP
C0
C0
ENDCHAR
STARTCHAR cedilla
ENCODING 184
SWIDTH 298 0
DWIDTH 4 0
BBX 3 3 0 -3
BITMAP
40
20
E0
ENDCHAR
STARTCHAR guillemotright
ENCODING 187
SWIDTH 476 0
DWIDTH 6 0
BBX 4 4 1 1
BITMAP
A0
90
50
A0
ENDCHAR
STARTCHAR questiondown
ENCODING 191
SWIDTH 428 0
DWIDTH 5 0
BBX 5 9 0 -3
BITMAP
20
00
00
20
20
40
80
88
70
ENDCHAR
STARTCHAR Agrave
ENCODING 192
SWIDTH 624 0
DWIDTH 7 0
BBX 7 10 0 0
BITMAP
10
00
10
18
28
28
44
7C
42
82
ENDCHAR
STARTCHAR Aacute
ENCODING 193
SWIDTH 624 0
DWIDTH 7 0
BBX 7 10 0 0
BITMAP
08
00
10
18
28
28
44
7C
42
82
ENDCHAR
STARTCHAR Acircumflex
ENCODING 194
SWIDTH 624 0
DWIDTH 7 0
BBX 7 10 0 0
BITMAP
38
00
10
18
28
28
44
7C
42
82
ENDCHAR
STARTCHAR Atilde
ENCODING 195
SWIDTH 624 0
DWIDTH 7 0
BBX 7 11 0 0
BITMAP
24
54
08
00
10
28
28
24
7C
42
82
ENDCHAR
STARTCHAR Adieresis
ENCODING 196
SWIDTH 624 0
DWIDTH 7 0
BBX 7 10 0 0
BITMAP
28
00
10
18
28
28
44
7C
42
82
ENDCHAR
STARTCHAR Aring
ENCODING 197
SWIDTH 624 0
DWIDTH 7 0
BBX 7 10 0 0
BITMAP
18
28
10
18
28
28
44
7C
42
82
ENDCHAR
STARTCHAR AE
ENCODING 198
SWIDTH 951 0
DWIDTH 11 0
BBX 11 9 0 0
BITMAP
1F00
1000
2800
2800
27C0
4400
7C00
4200
83E0
ENDCHAR
STARTCHAR Ccedilla
ENCODING 199
SWIDTH 736 0
DWIDTH 9 0
BBX 7 12 1 -3
BITMAP
3C
42
82
80
80
80
82
42
3C
10
08
38
ENDCHAR
STARTCHAR Egrave
ENCODING 200
SWIDTH 542 0
DWIDTH 7 0
BBX 5 11 1 0
BITMAP
60
00
F8
80
80
80
F8
80
80
80
F8
ENDCHAR
STARTCHAR Eacute
ENCODING 201
SWIDTH 542 0
DWIDTH 7 0
BBX 5 11 1 0
BITMAP
30
00
F8
80
80
80
F8
80
80
80
F8
ENDCHAR
STARTCHAR Ecircumflex
ENCODING 202
SWIDTH 542 0
DWIDTH 7 0
BBX 5 11 1 0
BITMAP
70
00
F8
80
80
80
F8
80
80
80
F8
ENDCHAR
STARTCHAR Edieresis
ENCODING 203
SWIDTH 542 0
DWIDTH 7 0
BBX 5 11 1 0
BITMAP
50
00
F8
80
80
80
F8
80
80
80
F8
ENDCHAR
STARTCHAR Igrave
ENCODING 204
SWIDTH 251 0
DWIDTH 3 0
BBX 2 11 0 0
BITMAP
C0
00
40
40
40
40
40
40
40
40
40
ENDCHAR
STARTCHAR Iacute
ENCODING 205
SWIDTH 251 0
DWIDTH 3 0
BBX 2 11 1 0
BITMAP
C0
00
80
80
80
80
80
80
80
80
80
ENDCHAR
STARTCHAR Icircumflex
ENCODING 206
SWIDTH 251 0
DWIDTH 3 0
BBX 3 11 0 0
BITMAP
E0
00
40
40
40
40
40
40
40
40
40
ENDCHAR
STARTCHAR Idieresis
ENCODING 207
SWIDTH 251 0
DWIDTH 3 0
BBX 3 11 0 0
BITMAP
A0
00
40
40
40
40
40
40
40
40
40
ENDCHAR
STARTCHAR Eth
ENCODING 208
SWIDTH 654 0
DWIDTH 8 0
BBX 7 9 0 0
BITMAP
78
44
42
42
F2
42
42
46
78
ENDCHAR
STARTCHAR Ntilde
ENCODING 209
SWIDTH 630 0
DWIDTH 8 0
BBX 5 12 1 0
BITMAP
68
A8
10
88
88
C8
A8
A8
98
88
88
88
ENDCHAR
STARTCHAR Ograve
ENCODING 210
SWIDTH 788 0
DWIDTH 9 0
BBX 8 11 1 0
BITMAP
20
10
3C
C2
81
81
81
81
81
C2
3C
ENDCHAR
STARTCHAR Oacute
ENCODING 211
SWIDTH 788 0
DWIDTH 9 0
BBX 8 11 1 0
BITMAP
08
00
3C
C2
81
81
81
81
81
C2
3C
ENDCHAR
STARTCHAR Ocircumflex
ENCODING 212
SWIDTH 788 0
DWIDTH 9 0
BBX 8 11 1 0
BITMAP
18
20
3C
C2
81
81
81
81
81
C2
3C
ENDCHAR
STARTCHAR Otilde
ENCODING 213
SWIDTH 788 0
DWIDTH 9 0
BBX 8 12 1 0
BITMAP
24
54
08
3C
C2
81
81
81
81
81
C2
3C
ENDCHAR
STARTCHAR Odieresis
ENCODING 214
SWIDTH 788 0
DWIDTH 9 0
BBX 8 11 1 0
BITMAP
28
00
3C
C2
81
81
81
81
81
C2
3C
ENDCHAR
STARTCHAR multiply
ENCODING 215
SWIDTH 439 0
DWIDTH 5 0
BBX 3 3 1 1
BITMAP
A0
40
A0
ENDCHAR
STARTCHAR Oslash
ENCODING 216
SWIDTH 788 0
DWIDTH 9 0
BBX 8 9 1 0
BITMAP
3C
C2
85
89
91
A1
C1
C2
3C
ENDCHAR
STARTCHAR Ugrave
ENCODING 217
SWIDTH 607 0
DWIDTH 7 0
BBX 5 11 1 0
BITMAP
20
00
88
88
88
88
88
88
88
88
70
ENDCHAR
STARTCHAR Uacute
ENCODING 218
SWIDTH 607 0
DWIDTH 7 0
BBX 5 11 1 0
BITMAP
30
00
88
88
88
88
88
88
88
88
70
ENDCHAR
STARTCHAR Ucircumflex
ENCODING 219
SWIDTH 607 0
DWIDTH 7 0
BBX 5 11 1 0
BITMAP
70
00
88
88
88
88
88
88
88
88
70
ENDCHAR
STARTCHAR Udieresis
ENCODING 220
SWIDTH 607 0
DWIDTH 7 0
BBX 5 11 1 0
BITMAP
50
00
88
88
88
88
88
88
88
88
70
ENDCHAR
STARTCHAR Yacute
ENCODING 221
SWIDTH 602 0
DWIDTH 7 0
BBX 7 11 0 0
BITMAP
18
00
82
44
28
28
10
10
10
10
10
ENDCHAR
STARTCHAR Thorn
ENCODING 222
SWIDTH 557 0
DWIDTH 7 0
BBX 5 9 1 0
BITMAP
80
F0
88
88
88
88
F0
80
80
ENDCHAR
STARTCHAR germandbls
ENCODING 223
SWIDTH 592 0
DWIDTH 7 0
BBX 6 9 1 0
BITMAP
70
88
88
B0
88
84
84
88
B8
ENDCHAR
STARTCHAR agrave
ENCODING 224
SWIDTH 559 0
DWIDTH 7 0
BBX 6 9 0 0
BITMAP
20
20
00
34
4C
84
84
44
7C
ENDCHAR
STARTCHAR aacute
ENCODING 225
SWIDTH 559 0
DWIDTH 7 0
BBX 6 9 0 0
BITMAP
08
10
00
34
4C
84
84
44
7C
ENDCHAR
STARTCHAR acircumflex
ENCODING 226
SWIDTH 559 0
DWIDTH 7 0
BBX 6 9 0 0
BITMAP
30
28
00
34
4C
84
84
44
7C
ENDCHAR
STARTCHAR atilde
ENCODING 227
SWIDTH 559 0
DWIDTH 7 0
BBX 6 9 0 0
BITMAP
68
58
00
34
4C
84
84
44
7C
ENDCHAR
STARTCHAR adieresis
ENCODING 228
SWIDTH 559 0
DWIDTH 7 0
BBX 6 8 0 0
BITMAP
38
00
34
4C
84
84
44
7C
ENDCHAR
STARTCHAR aring
ENCODING 229
SWIDTH 559 0
DWIDTH 7 0
BBX 6 9 0 0
BITMAP
30
30
00
34
4C
84
84
44
7C
ENDCHAR
STARTCHAR ae
ENCODING 230
SWIDTH 838 0
DWIDTH 10 0
BBX 10 6 0 0
BITMAP
7780
0880
7FC0
8800
8C80
7780
ENDCHAR
STARTCHAR ccedilla
ENCODING 231
SWIDTH 514 0
DWIDTH 6 0
BBX 6 9 0 -3
BITMAP
38
44
80
80
44
38
20
18
30
ENDCHAR
STARTCHAR egrave
ENCODING 232
SWIDTH 526 0
DWIDTH 6 0
BBX 6 9 0 0
BITMAP
20
20
00
38
44
FC
80
44
38
ENDCHAR
STARTCHAR eacute
ENCODING 233
SWIDTH 526 0
DWIDTH 6 0
BBX 6 9 0 0
BITMAP
08
10
00
38
44
FC
80
44
38
ENDCHAR
STARTCHAR ecircumflex
ENCODING 234
SWIDTH 526 0
DWIDTH 6 0
BBX 6 9 0 0
BITMAP
30
28
00
38
44
FC
80
44
38
ENDCHAR
STARTCHAR edieresis
ENCODING 235
SWIDTH 526 0
DWIDTH 6 0
BBX 6 8 0 0
BITMAP
38
00
38
44
FC
80
44
38
ENDCHAR
STARTCHAR igrave
ENCODING 236
SWIDTH 215 0
DWIDTH 3 0
BBX 2 9 0 0
BITMAP
80
80
00
40
40
40
40
40
40
ENDCHAR
STARTCHAR iacute
ENCODING 237
SWIDTH 215 0
DWIDTH 3 0
BBX 2 9 1 0
BITMAP
40
80
00
80
80
80
80
80
80
ENDCHAR
STARTCHAR icircumflex
ENCODING 238
SWIDTH 215 0
DWIDTH 3 0
BBX 3 9 0 0
BITMAP
C0
A0
00
40
40
40
40
40
40
ENDCHAR
STARTCHAR idieresis
ENCODING 239
SWIDTH 215 0
DWIDTH 3 0
BBX 3 8 0 0
BITMAP
A0
00
40
40
40
40
40
40
ENDCHAR
STARTCHAR eth
ENCODING 240
SWIDTH 522 0
DWIDTH 6 0
BBX 6 9 0 0
BITMAP
40
78
10
38
48
84
84
44
38
ENDCHAR
STARTCHAR ntilde
ENCODING 241
SWIDTH 511 0
DWIDTH 6 0
BBX 4 9 1 0
BITMAP
D0
B0
00
F0
90
90
90
90
90
ENDCHAR
STARTCHAR ograve
ENCODING 242
SWIDTH 523 0
DWIDTH 6 0
BBX 6 9 0 0
BITMAP
20
20
00
38
44
84
84
44
38
ENDCHAR
STARTCHAR oacute
ENCODING 243
SWIDTH 523 0
DWIDTH 6 0
BBX 6 9 0 0
BITMAP
08
10
00
38
44
84
84
44
38
ENDCHAR
STARTCHAR ocircumflex
ENCODING 244
SWIDTH 523 0
DWIDTH 6 0
BBX 6 9 0 0
BITMAP
30
28
00
38
44
84
84
44
38
ENDCHAR
STARTCHAR otilde
ENCODING 245
SWIDTH 523 0
DWIDTH 6 0
BBX 6 9 0 0
BITMAP
68
58
00
38
44
84
84
44
38
ENDCHAR
STARTCHAR odieresis
ENCODING 246
SWIDTH 523 0
DWIDTH 6 0
BBX 6 8 0 0
BITMAP
38
00
38
44
84
84
44
38
ENDCHAR
STARTCHAR divide
ENCODING 247
SWIDTH 542 0
DWIDTH 7 0
BBX 5 5 1 0
BITMAP
20
00
F8
00
20
ENDCHAR
STARTCHAR oslash
ENCODING 248
SWIDTH 523 0
DWIDTH 6 0
BBX 6 6 0 0
BITMAP
3C
4C
94
A4
44
F8
ENDCHAR
STARTCHAR ugrave
ENCODING 249
SWIDTH 511 0
DWIDTH 6 0
BBX 4 9 1 0
BITMAP
40
40
00
90
90
90
90
90
F0
ENDCHAR
STARTCHAR uacute
ENCODING 250
SWIDTH 511 0
DWIDTH 6 0
BBX 4 9 1 0
BITMAP
10
20
00
90
90
90
90
90
F0
ENDCHAR
STARTCHAR ucircumflex
ENCODING 251
SWIDTH 511 0
DWIDTH 6 0
BBX 4 9 1 0
BITMAP
60
10
00
90
90
90
90
90
F0
ENDCHAR
STARTCHAR udieresis
ENCODING 252
SWIDTH 511 0
DWIDTH 6 0
BBX 4 8 1 0
BITMAP
60
00
90
90
90
90
90
F0
ENDCHAR
STARTCHAR yacute
ENCODING 253
SWIDTH 431 0
DWIDTH 5 0
BBX 5 12 0 -3
BITMAP
10
20
00
88
48
50
30
20
20
40
40
40
ENDCHAR
STARTCHAR thorn
ENCODING 254
SWIDTH 559 0
DWIDTH 7 0
BBX 5 12 1 -3
BITMAP
80
80
80
F0
88
88
88
88
F0
80
80
80
ENDCHAR
STARTCHAR ydieresis
ENCODING 255
SWIDTH 431 0
DWIDTH 5 0
BBX 5 11 0 -3
BITMAP
50
00
88
48
50
30
20
20
40
40
40
ENDCHAR
STARTCHAR Amacron
ENCODING 256
SWIDTH 624 0
DWIDTH 7 0
BBX 7 10 0 0
BITMAP
38
00
10
18
28
28
44
7C
42
82
ENDCHAR
STARTCHAR amacron
ENCODING 257
SWIDTH 559 0
DWIDTH 7 0
BBX 6 8 0 0
BITMAP
78
00
34
4C
84
84
44
7C
ENDCHAR
STARTCHAR Abreve
ENCODING 258
SWIDTH 624 0
DWIDTH 7 0
BBX 7 11 0 0
BITMAP
20
38
00
10
18
28
28
44
7C
42
82
ENDCHAR
STARTCHAR abreve
ENCODING 259
SWIDTH 559 0
DWIDTH 7 0
BBX 6 9 0 0
BITMAP
48
30
00
34
4C
84
84
44
7C
ENDCHAR
STARTCHAR Aogonek
ENCODING 260
SWIDTH 624 0
DWIDTH 7 0
BBX 7 11 0 -3
BITMAP
10
18
28
28
44
7C
42
82
02
04
02
ENDCHAR
STARTCHAR aogonek
ENCODING 261
SWIDTH 559 0
DWIDTH 7 0
BBX 6 9 0 -3
BITMAP
34
4C
84
84
44
7C
08
08
04
ENDCHAR
STARTCHAR Cacute
ENCODING 262
SWIDTH 736 0
DWIDTH 9 0
BBX 7 11 1 0
BITMAP
08
00
3C
42
82
80
80
80
82
42
3C
ENDCHAR
STARTCHAR cacute
ENCODING 263
SWIDTH 514 0
DWIDTH 6 0
BBX 6 9 0 0
BITMAP
08
10
00
38
44
80
80
44
38
ENDCHAR
STARTCHAR Cdotaccent
ENCODING 266
SWIDTH 736 0
DWIDTH 9 0
BBX 7 11 1 0
BITMAP
10
00
3C
42
82
80
80
80
82
42
3C
ENDCHAR
STARTCHAR cdotaccent
ENCODING 267
SWIDTH 514 0
DWIDTH 6 0
BBX 6 8 0 0
BITMAP
10
00
38
44
80
80
44
38
ENDCHAR
STARTCHAR Ccaron
ENCODING 268
SWIDTH 736 0
DWIDTH 9 0
BBX 7 11 1 0
BITMAP
28
10
3C
42
82
80
80
80
82
42
3C
ENDCHAR
STARTCHAR ccaron
ENCODING 269
SWIDTH 514 0
DWIDTH 6 0
BBX 6 9 0 0
BITMAP
28
30
00
38
44
80
80
44
38
ENDCHAR
STARTCHAR Dcaron
ENCODING 270
SWIDTH 654 0
DWIDTH 8 0
BBX 6 11 1 0
BITMAP
30
00
F0
8C
84
84
84
84
84
8C
F0
ENDCHAR
STARTCHAR dcaron
ENCODING 271
SWIDTH 569 0
DWIDTH 7 0
BBX 8 9 0 0
BITMAP
05
05
06
34
4C
84
84
44
7C
ENDCHAR
STARTCHAR Dcroat
ENCODING 272
SWIDTH 654 0
DWIDTH 8 0
BBX 7 9 0 0
BITMAP
78
44
42
42
F2
42
42
46
78
ENDCHAR
STARTCHAR dcroat
ENCODING 273
SWIDTH 559 0
DWIDTH 7 0
BBX 7 9 0 0
BITMAP
04
1E
04
34
4C
84
84
44
7C
ENDCHAR
STARTCHAR Emacron
ENCODING 274
SWIDTH 542 0
DWIDTH 7 0
BBX 5 11 1 0
BITMAP
70
00
F8
80
80
80
F8
80
80
80
F8
ENDCHAR
STARTCHAR emacron
ENCODING 275
SWIDTH 526 0
DWIDTH 6 0
BBX 6 8 0 0
BITMAP
78
00
38
44
FC
80
44
38
ENDCHAR
STARTCHAR Edotaccent
ENCODING 278
SWIDTH 542 0
DWIDTH 7 0
BBX 5 11 1 0
BITMAP
20
00
F8
80
80
80
F8
80
80
80
F8
ENDCHAR
STARTCHAR edotaccent
ENCODING 279
SWIDTH 526 0
DWIDTH 6 0
BBX 6 8 0 0
BITMAP
10
00
38
44
FC
80
44
38
ENDCHAR
STARTCHAR Eogonek
ENCODING 280
SWIDTH 542 0
DWIDTH 7 0
BBX 5 12 1 -3
BITMAP
F8
80
80
80
F8
80
80
80
F8
10
10
18
ENDCHAR
STARTCHAR eogonek
ENCODING 281
SWIDTH 526 0
DWIDTH 6 0
BBX 6 9 0 -3
BITMAP
38
44
FC
80
44
38
10
20
10
ENDCHAR
STARTCHAR Ecaron
ENCODING 282
SWIDTH 542 0
DWIDTH 7 0
BBX 5 11 1 0
BITMAP
70
00
F8
80
80
80
F8
80
80
80
F8
ENDCHAR
STARTCHAR ecaron
ENCODING 283
SWIDTH 526 0
DWIDTH 6 0
BBX 6 9 0 0
BITMAP
28
30
00
38
44
FC
80
44
38
ENDCHAR
STARTCHAR Gbreve
ENCODING 286
SWIDTH 755 0
DWIDTH 9 0
BBX 8 12 1 0
BITMAP
20
38
00
3C
42
82
80
80
8F
82
C2
3C
ENDCHAR
STARTCHAR gbreve
ENCODING 287
SWIDTH 559 0
DWIDTH 7 0
BBX 6 12 0 -3
BITMAP
48
30
00
34
4C
84
84
44
7C
04
44
78
ENDCHAR
STARTCHAR Gdotaccent
ENCODING 288
SWIDTH 755 0
DWIDTH 9 0
BBX 8 11 1 0
BITMAP
10
00
3C
42
82
80
80
8F
82
C2
3C
ENDCHAR
STARTCHAR gdotaccent
ENCODING 289
SWIDTH 559 0
DWIDTH 7 0
BBX 6 11 0 -3
BITMAP
10
00
34
4C
84
84
44
7C
04
44
78
ENDCHAR
STARTCHAR uni0122
ENCODING 290
SWIDTH 755 0
DWIDTH 9 0
BBX 8 11 1 -2
BITMAP
3C
42
82
80
80
8F
82
C2
3C
00
10
ENDCHAR
STARTCHAR uni0123
ENCODING 291
SWIDTH 559 0
DWIDTH 7 0
BBX 6 12 0 -3
BITMAP
10
10
00
34
4C
84
84
44
7C
04
44
78
ENDCHAR
STARTCHAR hbar
ENCODING 295
SWIDTH 509 0
DWIDTH 6 0
BBX 5 9 0 0
BITMAP
40
F0
40
78
48
48
48
48
48
ENDCHAR
STARTCHAR Imacron
ENCODING 298
SWIDTH 251 0
DWIDTH 3 0
BBX 3 11 0 0
BITMAP
E0
00
40
40
40
40
40
40
40
40
40
ENDCHAR
STARTCHAR imacron
ENCODING 299
SWIDTH 215 0
DWIDTH 3 0
BBX 3 8 0 0
BITMAP
E0
00
40
40
40
40
40
40
ENDCHAR
STARTCHAR Iogonek
ENCODING 302
SWIDTH 251 0
DWIDTH 3 0
BBX 2 12 0 -3
BITMAP
40
40
40
40
40
40
40
40
40
80
80
C0
ENDCHAR
STARTCHAR iogonek
ENCODING 303
SWIDTH 215 0
DWIDTH 3 0
BBX 2 11 0 -3
BITMAP
40
00
40
40
40
40
40
40
80
80
C0
ENDCHAR
STARTCHAR Idotaccent
ENCODING 304
SWIDTH 251 0
DWIDTH 3 0
BBX 1 11 1 0
BITMAP
80
00
80
80
80
80
80
80
80
80
80
ENDCHAR
STARTCHAR dotlessi
ENCODING 305
SWIDTH 215 0
DWIDTH 3 0
BBX 1 6 1 0
BITMAP
80
80
80
80
80
80
ENDCHAR
STARTCHAR uni0136
ENCODING 310
SWIDTH 555 0
DWIDTH 7 0
BBX 5 11 1 -2
BITMAP
88
90
A0
A0
C0
A0
B0
90
88
00
20
ENDCHAR
STARTCHAR uni0137
ENCODING 311
SWIDTH 428 0
DWIDTH 5 0
BBX 4 12 1 -3
BITMAP
80
80
80
B0
A0
C0
C0
A0
90
00
40
40
ENDCHAR
STARTCHAR Lacute
ENCODING 313
SWIDTH 418 0
DWIDTH 5 0
BBX 4 11 1 0
BITMAP
C0
00
80
80
80
80
80
80
80
80
F0
ENDCHAR
STARTCHAR lacute
ENCODING 314
SWIDTH 215 0
DWIDTH 3 0
BBX 1 11 1 0
BITMAP
80
00
80
80
80
80
80
80
80
80
80
ENDCHAR
STARTCHAR uni013B
ENCODING 315
SWIDTH 418 0
DWIDTH 5 0
BBX 4 12 1 -3
BITMAP
80
80
80
80
80
80
80
80
F0
00
40
40
ENDCHAR
STARTCHAR uni013C
ENCODING 316
SWIDTH 215 0
DWIDTH 3 0
BBX 2 12 0 -3
BITMAP
40
40
40
40
40
40
40
40
40
00
40
80
ENDCHAR
STARTCHAR Lcaron
ENCODING 317
SWIDTH 418 0
DWIDTH 5 0
BBX 4 9 1 0
BITMAP
90
A0
A0
80
80
80
80
80
F0
ENDCHAR
STARTCHAR lcaron
ENCODING 318
SWIDTH 229 0
DWIDTH 3 0
BBX 3 9 1 0
BITMAP
A0
C0
C0
80
80
80
80
80
80
ENDCHAR
STARTCHAR Lslash
ENCODING 321
SWIDTH 418 0
DWIDTH 5 0
BBX 5 9 0 0
BITMAP
40
40
40
60
40
C0
40
40
78
ENDCHAR
STARTCHAR lslash
ENCODING 322
SWIDTH 215 0
DWIDTH 3 0
BBX 3 9 0 0
BITMAP
40
40
40
60
40
C0
40
40
40
ENDCHAR
STARTCHAR Nacute
ENCODING 323
SWIDTH 630 0
DWIDTH 8 0
BBX 5 11 1 0
BITMAP
10
00
88
88
C8
A8
A8
98
88
88
88
ENDCHAR
STARTCHAR nacute
ENCODING 324
SWIDTH 511 0
DWIDTH 6 0
BBX 4 9 1 0
BITMAP
20
20
00
F0
90
90
90
90
90
ENDCHAR
STARTCHAR uni0145
ENCODING 325
SWIDTH 630 0
DWIDTH 8 0
BBX 5 11 1 -2
BITMAP
88
88
C8
A8
A8
98
88
88
88
00
20
ENDCHAR
STARTCHAR uni0146
ENCODING 326
SWIDTH 511 0
DWIDTH 6 0
BBX 4 9 1 -3
BITMAP
F0
90
90
90
90
90
00
40
40
ENDCHAR
STARTCHAR Ncaron
ENCODING 327
SWIDTH 630 0
DWIDTH 8 0
BBX 5 11 1 0
BITMAP
30
00
88
88
C8
A8
A8
98
88
88
88
ENDCHAR
STARTCHAR ncaron
ENCODING 328
SWIDTH 511 0
DWIDTH 6 0
BBX 4 9 1 0
BITMAP
A0
60
00
F0
90
90
90
90
90
ENDCHAR
STARTCHAR Eng
ENCODING 330
SWIDTH 670 0
DWIDTH 8 0
BBX 6 12 1 -3
BITMAP
84
84
C4
A4
A4
94
8C
8C
84
04
04
0C
ENDCHAR
STARTCHAR eng
ENCODING 331
SWIDTH 511 0
DWIDTH 6 0
BBX 4 9 1 -3
BITMAP
F0
90
90
90
90
90
10
10
30
ENDCHAR
STARTCHAR Omacron
ENCODING 332
SWIDTH 788 0
DWIDTH 9 0
BBX 8 11 1 0
BITMAP
38
00
3C
C2
81
81
81
81
81
C2
3C
ENDCHAR
STARTCHAR omacron
ENCODING 333
SWIDTH 523 0
DWIDTH 6 0
BBX 6 8 0 0
BITMAP
78
00
38
44
84
84
44
38
ENDCHAR
STARTCHAR Ohungarumlaut
ENCODING 336
SWIDTH 788 0
DWIDTH 9 0
BBX 8 12 1 0
BITMAP
14
14
00
3C
C2
81
81
81
81
81
C2
3C
ENDCHAR
STARTCHAR ohungarumlaut
ENCODING 337
SWIDTH 523 0
DWIDTH 6 0
BBX 6 9 0 0
BITMAP
14
28
00
38
44
84
84
44
38
ENDCHAR
STARTCHAR OE
ENCODING 338
SWIDTH 946 0
DWIDTH 11 0
BBX 10 9 1 0
BITMAP
7FC0
8400
8400
8400
87C0
8400
8400
8400
7FC0
ENDCHAR
STARTCHAR oe
ENCODING 339
SWIDTH 917 0
DWIDTH 11 0
BBX 11 6 0 0
BITMAP
7BC0
4440
87E0
8400
4440
3BC0
ENDCHAR
STARTCHAR Racute
ENCODING 340
SWIDTH 587 0
DWIDTH 7 0
BBX 5 11 1 0
BITMAP
30
00
F0
88
88
88
F0
A0
90
88
88
ENDCHAR
STARTCHAR racute
ENCODING 341
SWIDTH 307 0
DWIDTH 4 0
BBX 3 9 1 0
BITMAP
20
40
00
E0
80
80
80
80
80
ENDCHAR
STARTCHAR uni0156
ENCODING 342
SWIDTH 587 0
DWIDTH 7 0
BBX 5 12 1 -3
BITMAP
F0
88
88
88
F0
A0
90
88
88
00
20
40
ENDCHAR
STARTCHAR uni0157
ENCODING 343
SWIDTH 307 0
DWIDTH 4 0
BBX 4 9 0 -3
BITMAP
70
40
40
40
40
40
00
40
80
ENDCHAR
STARTCHAR Rcaron
ENCODING 344
SWIDTH 587 0
DWIDTH 7 0
BBX 5 11 1 0
BITMAP
70
00
F0
88
88
88
F0
A0
90
88
88
ENDCHAR
STARTCHAR rcaron
ENCODING 345
SWIDTH 307 0
DWIDTH 4 0
BBX 3 9 1 0
BITMAP
A0
C0
00
E0
80
80
80
80
80
ENDCHAR
STARTCHAR Sacute
ENCODING 346
SWIDTH 590 0
DWIDTH 7 0
BBX 7 11 0 0
BITMAP
08
00
38
44
40
40
38
04
82
44
3C
ENDCHAR
STARTCHAR sacute
ENCODING 347
SWIDTH 426 0
DWIDTH 5 0
BBX 5 9 0 0
BITMAP
10
20
00
70
80
70
18
88
70
ENDCHAR
STARTCHAR Scedilla
ENCODING 350
SWIDTH 590 0
DWIDTH 7 0
BBX 7 12 0 -3
BITMAP
38
44
40
40
38
04
82
44
3C
10
08
38
ENDCHAR
STARTCHAR scedilla
ENCODING 351
SWIDTH 426 0
DWIDTH 5 0
BBX 5 9 0 -3
BITMAP
70
80
70
08
88
70
20
10
70
ENDCHAR
STARTCHAR Scaron
ENCODING 352
SWIDTH 590 0
DWIDTH 7 0
BBX 7 11 0 0
BITMAP
28
10
38
44
40
40
38
04
82
44
3C
ENDCHAR
STARTCHAR scaron
ENCODING 353
SWIDTH 426 0
DWIDTH 5 0
BBX 5 9 0 0
BITMAP
50
20
00
70
80
70
18
88
70
ENDCHAR
STARTCHAR uni0162
ENCODING 354
SWIDTH 430 0
DWIDTH 5 0
BBX 5 12 0 -3
BITMAP
F8
20
20
20
20
20
20
20
20
20
10
70
ENDCHAR
STARTCHAR uni0163
ENCODING 355
SWIDTH 300 0
DWIDTH 4 0
BBX 4 11 0 -3
BITMAP
40
40
F0
40
40
40
40
40
40
20
E0
ENDCHAR
STARTCHAR Tcaron
ENCODING 356
SWIDTH 430 0
DWIDTH 5 0
BBX 5 11 0 0
BITMAP
70
00
F8
20
20
20
20
20
20
20
20
ENDCHAR
STARTCHAR tcaron
ENCODING 357
SWIDTH 300 0
DWIDTH 4 0
BBX 5 10 0 0
BITMAP
08
10
50
40
F0
40
40
40
40
40
ENDCHAR
STARTCHAR Tbar
ENCODING 358
SWIDTH 430 0
DWIDTH 5 0
BBX 5 9 0 0
BITMAP
F8
20
20
20
70
20
20
20
20
ENDCHAR
STARTCHAR tbar
ENCODING 359
SWIDTH 300 0
DWIDTH 4 0
BBX 4 8 0 0
BITMAP
40
40
F0
40
F0
40
40
40
ENDCHAR
STARTCHAR Umacron
ENCODING 362
SWIDTH 607 0
DWIDTH 7 0
BBX 5 11 1 0
BITMAP
70
00
88
88
88
88
88
88
88
88
70
ENDCHAR
STARTCHAR umacron
ENCODING 363
SWIDTH 511 0
DWIDTH 6 0
BBX 4 8 1 0
BITMAP
F0
00
90
90
90
90
90
F0
ENDCHAR
STARTCHAR Uring
ENCODING 366
SWIDTH 607 0
DWIDTH 7 0
BBX 5 11 1 0
BITMAP
30
30
88
88
88
88
88
88
88
88
70
ENDCHAR
STARTCHAR uring
ENCODING 367
SWIDTH 511 0
DWIDTH 6 0
BBX 4 9 1 0
BITMAP
60
60
00
90
90
90
90
90
F0
ENDCHAR
STARTCHAR Uhungarumlaut
ENCODING 368
SWIDTH 607 0
DWIDTH 7 0
BBX 5 12 1 0
BITMAP
28
50
00
88
88
88
88
88
88
88
88
70
ENDCHAR
STARTCHAR uhungarumlaut
ENCODING 369
SWIDTH 511 0
DWIDTH 6 0
BBX 5 9 1 0
BITMAP
48
50
00
90
90
90
90
90
F0
ENDCHAR
STARTCHAR Uogonek
ENCODING 370
SWIDTH 607 0
DWIDTH 7 0
BBX 5 12 1 -3
BITMAP
88
88
88
88
88
88
88
88
70
20
40
20
ENDCHAR
STARTCHAR uogonek
ENCODING 371
SWIDTH 511 0
DWIDTH 6 0
BBX 4 9 1 -3
BITMAP
90
90
90
90
90
F0
10
20
10
ENDCHAR
STARTCHAR Wcircumflex
ENCODING 372
SWIDTH 819 0
DWIDTH 10 0
BBX 9 10 0 1
BITMAP
1C00
0000
8880
4C80
4C80
5480
5300
6300
2100
2100
ENDCHAR
STARTCHAR wcircumflex
ENCODING 373
SWIDTH 711 0
DWIDTH 9 0
BBX 8 8 0 1
BITMAP
18
14
00
89
59
5A
26
24
ENDCHAR
STARTCHAR Ycircumflex
ENCODING 374
SWIDTH 602 0
DWIDTH 7 0
BBX 7 11 0 0
BITMAP
38
00
82
44
28
28
10
10
10
10
10
ENDCHAR
STARTCHAR ycircumflex
ENCODING 375
SWIDTH 431 0
DWIDTH 5 0
BBX 5 12 0 -3
BITMAP
20
50
00
88
48
50
30
20
20
40
40
40
ENDCHAR
STARTCHAR Ydieresis
ENCODING 376
SWIDTH 602 0
DWIDTH 7 0
BBX 7 11 0 0
BITMAP
28
00
82
44
28
28
10
10
10
10
10
ENDCHAR
STARTCHAR Zacute
ENCODING 377
SWIDTH 573 0
DWIDTH 7 0
BBX 6 11 0 0
BITMAP
18
00
FC
04
08
18
10
20
20
40
7C
ENDCHAR
STARTCHAR zacute
ENCODING 378
SWIDTH 460 0
DWIDTH 6 0
BBX 5 9 0 0
BITMAP
10
20
00
F8
10
30
20
40
F8
ENDCHAR
STARTCHAR Zdotaccent
ENCODING 379
SWIDTH 573 0
DWIDTH 7 0
BBX 6 11 0 0
BITMAP
10
00
FC
04
08
18
10
20
20
40
7C
ENDCHAR
STARTCHAR zdotaccent
ENCODING 380
SWIDTH 460 0
DWIDTH 6 0
BBX 5 8 0 0
BITMAP
20
00
F8
10
30
20
40
F8
ENDCHAR
STARTCHAR Zcaron
ENCODING 381
SWIDTH 573 0
DWIDTH 7 0
BBX 6 11 0 0
BITMAP
38
00
FC
04
08
18
10
20
20
40
7C
ENDCHAR
STARTCHAR zcaron
ENCODING 382
SWIDTH 460 0
DWIDTH 6 0
BBX 5 9 0 0
BITMAP
50
30
00
F8
10
30
20
40
F8
ENDCHAR
STARTCHAR uni0218
ENCODING 536
SWIDTH 590 0
DWIDTH 7 0
BBX 7 11 0 -2
BITMAP
38
44
40
40
38
04
82
44
3C
00
10
ENDCHAR
STARTCHAR uni0219
ENCODING 537
SWIDTH 426 0
DWIDTH 5 0
BBX 5 8 0 -2
BITMAP
70
80
70
18
88
70
00
20
ENDCHAR
STARTCHAR uni021A
ENCODING 538
SWIDTH 430 0
DWIDTH 5 0
BBX 5 11 0 -2
BITMAP
F8
20
20
20
20
20
20
20
20
00
20
ENDCHAR
STARTCHAR uni021B
ENCODING 539
SWIDTH 300 0
DWIDTH 4 0
BBX 4 10 0 -2
BITMAP
40
40
F0
40
40
40
40
40
00
40
ENDCHAR
STARTCHAR uni0237
ENCODING 567
SWIDTH 215 0
DWIDTH 3 0
BBX 2 9 0 -3
BITMAP
40
40
40
40
40
40
40
40
80
ENDCHAR
STARTCHAR circumflex
ENCODING 710
SWIDTH 333 0
DWIDTH 4 0
BBX 2 1 1 8
BITMAP
C0
ENDCHAR
STARTCHAR caron
ENCODING 711
SWIDTH 337 0
DWIDTH 4 0
BBX 3 2 0 7
BITMAP
A0
60
ENDCHAR
STARTCHAR breve
ENCODING 728
SWIDTH 375 0
DWIDTH 5 0
BBX 3 2 1 7
BITMAP
A0
C0
ENDCHAR
STARTCHAR dotaccent
ENCODING 729
SWIDTH 215 0
DWIDTH 3 0
BBX 1 1 1 6
BITMAP
80
ENDCHAR
STARTCHAR ring
ENCODING 730
SWIDTH 295 0
DWIDTH 4 0
BBX 2 3 1 6
BITMAP
C0
C0
80
ENDCHAR
STARTCHAR ogonek
ENCODING 731
SWIDTH 241 0
DWIDTH 3 0
BBX 1 3 1 -3
BITMAP
80
80
80
ENDCHAR
STARTCHAR tilde
ENCODING 732
SWIDTH 437 0
DWIDTH 5 0
BBX 4 2 1 7
BITMAP
D0
20
ENDCHAR
STARTCHAR hungarumlaut
ENCODING 733
SWIDTH 395 0
DWIDTH 5 0
BBX 3 1 1 8
BITMAP
A0
ENDCHAR
STARTCHAR gravecomb
ENCODING 768
SWIDTH 0 0
DWIDTH 0 0
BBX 1 1 -2 8
BITMAP
80
ENDCHAR
STARTCHAR acutecomb
ENCODING 769
SWIDTH 0 0
DWIDTH 0 0
BBX 1 2 -2 7
BITMAP
80
80
ENDCHAR
STARTCHAR uni0302
ENCODING 770
SWIDTH 0 0
DWIDTH 0 0
BBX 2 1 -3 8
BITMAP
C0
ENDCHAR
STARTCHAR tildecomb
ENCODING 771
SWIDTH 0 0
DWIDTH 0 0
BBX 4 2 -5 7
BITMAP
50
B0
ENDCHAR
STARTCHAR uni0304
ENCODING 772
SWIDTH 0 0
DWIDTH 0 0
BBX 3 1 -4 6
BITMAP
E0
ENDCHAR
STARTCHAR uni0306
ENCODING 774
SWIDTH 0 0
DWIDTH 0 0
BBX 3 2 -4 7
BITMAP
A0
60
ENDCHAR
STARTCHAR uni0307
ENCODING 775
SWIDTH 0 0
DWIDTH 0 0
BBX 1 1 -2 6
BITMAP
80
ENDCHAR
STARTCHAR uni0308
ENCODING 776
SWIDTH 0 0
DWIDTH 0 0
BBX 3 1 -4 6
BITMAP
E0
ENDCHAR
STARTCHAR uni030A
ENCODING 778
SWIDTH 0 0
DWIDTH 0 0
BBX 2 3 -3 6
BITMAP
C0
C0
40
ENDCHAR
STARTCHAR uni030B
ENCODING 779
SWIDTH 0 0
DWIDTH 0 0
BBX 3 2 -4 7
BITMAP
A0
A0
ENDCHAR
STARTCHAR uni030C
ENCODING 780
SWIDTH 0 0
DWIDTH 0 0
BBX 3 2 -4 7
BITMAP
A0
60
ENDCHAR
STARTCHAR uni0312
ENCODING 786
SWIDTH 0 0
DWIDTH 0 0
BBX 1 2 -2 7
BITMAP
80
80
ENDCHAR
STARTCHAR uni0326
ENCODING 806
SWIDTH 0 0
DWIDTH 0 0
BBX 1 2 -2 -3
BITMAP
80
80
ENDCHAR
STARTCHAR uni0327
ENCODING 807
SWIDTH 0 0
DWIDTH 0 0
BBX 3 3 -3 -3
BITMAP
40
20
C0
ENDCHAR
STARTCHAR uni0328
ENCODING 808
SWIDTH 0 0
DWIDTH 0 0
BBX 1 3 -2 -3
BITMAP
80
80
80
ENDCHAR
STARTCHAR uni0335
ENCODING 821
SWIDTH 0 0
DWIDTH 0 0
BBX 3 1 -4 2
BITMAP
E0
ENDCHAR
STARTCHAR uni0336
ENCODING 822
SWIDTH 0 0
DWIDTH 0 0
BBX 7 1 -8 2
BITMAP
FE
ENDCHAR
STARTCHAR uni0337
ENCODING 823
SWIDTH 0 0
DWIDTH 0 0
BBX 2 3 -3 2
BITMAP
40
80
80
ENDCHAR
STARTCHAR uni0338
ENCODING 824
SWIDTH 0 0
DWIDTH 0 0
BBX 6 6 -6 0
BITMAP
04
08
10
20
40
80
ENDCHAR
STARTCHAR Wgrave
ENCODING 7808
SWIDTH 819 0
DWIDTH 10 0
BBX 9 10 0 1
BITMAP
0800
0000
8880
4C80
4C80
5480
5300
6300
2100
2100
ENDCHAR
STARTCHAR wgrave
ENCODING 7809
SWIDTH 711 0
DWIDTH 9 0
BBX 8 8 0 1
BITMAP
10
10
00
89
59
5A
26
24
ENDCHAR
STARTCHAR Wacute
ENCODING 7810
SWIDTH 819 0
DWIDTH 10 0
BBX 9 10 0 1
BITMAP
0400
0000
8880
4C80
4C80
5480
5300
6300
2100
2100
ENDCHAR
STARTCHAR wacute
ENCODING 7811
SWIDTH 711 0
DWIDTH 9 0
BBX 8 8 0 1
BITMAP
04
08
00
89
59
5A
26
24
ENDCHAR
STARTCHAR Wdieresis
ENCODING 7812
SWIDTH 819 0
DWIDTH 10 0
BBX 9 10 0 1
BITMAP
1400
0000
8880
4C80
4C80
5480
5300
6300
2100
2100
ENDCHAR
STARTCHAR wdieresis
ENCODING 7813
SWIDTH 711 0
DWIDTH 9 0
BBX 8 7 0 1
BITMAP
14
00
89
49
5A
26
24
ENDCHAR
STARTCHAR uni1E9E
ENCODING 7838
SWIDTH 622 0
DWIDTH 7 0
BBX 6 9 1 0
BITMAP
FC
88
90
98
84
84
84
84
B8
ENDCHAR
STARTCHAR Ygrave
ENCODING 7922
SWIDTH 602 0
DWIDTH 7 0
BBX 7 11 0 0
BITMAP
30
00
82
44
28
28
10
10
10
10
10
ENDCHAR
STARTCHAR ygrave
ENCODING 7923
SWIDTH 431 0
DWIDTH 5 0
BBX 5 12 0 -3
BITMAP
40
20
00
88
48
50
30
20
20
40
40
40
ENDCHAR
STARTCHAR endash
ENCODING 8211
SWIDTH 643 0
DWIDTH 8 0
BBX 6 1 1 2
BITMAP
FC
ENDCHAR
STARTCHAR emdash
ENCODING 8212
SWIDTH 1000 0
DWIDTH 12 0
BBX 12 1 0 2
BITMAP
FFF0
ENDCHAR
STARTCHAR quoteleft
ENCODING 8216
SWIDTH 247 0
DWIDTH 3 0
BBX 1 3 1 6
BITMAP
80
80
80
ENDCHAR
STARTCHAR quoteright
ENCODING 8217
SWIDTH 248 0
DWIDTH 3 0
BBX 1 3 1 6
BITMAP
80
80
80
ENDCHAR
STARTCHAR quotesinglbase
ENCODING 8218
SWIDTH 276 0
DWIDTH 3 0
BBX 1 3 1 -2
BITMAP
80
80
80
ENDCHAR
STARTCHAR quotedblleft
ENCODING 8220
SWIDTH 403 0
DWIDTH 5 0
BBX 3 3 1 6
BITMAP
A0
A0
A0
ENDCHAR
STARTCHAR quotedblright
ENCODING 8221
SWIDTH 404 0
DWIDTH 5 0
BBX 3 3 1 6
BITMAP
A0
A0
C0
ENDCHAR
STARTCHAR quotedblbase
ENCODING 8222
SWIDTH 413 0
DWIDTH 5 0
BBX 3 3 1 -2
BITMAP
A0
A0
C0
ENDCHAR
STARTCHAR bullet
ENCODING 8226
SWIDTH 378 0
DWIDTH 5 0
BBX 3 3 1 3
BITMAP
40
E0
C0
ENDCHAR
STARTCHAR ellipsis
ENCODING 8230
SWIDTH 688 0
DWIDTH 8 0
BBX 6 1 1 0
BITMAP
B4
ENDCHAR
STARTCHAR guilsinglleft
ENCODING 8249
SWIDTH 268 0
DWIDTH 3 0
BBX 1 4 1 1
BITMAP
80
80
80
80
ENDCHAR
STARTCHAR guilsinglright
ENCODING 8250
SWIDTH 268 0
DWIDTH 3 0
BBX 2 4 1 1
BITMAP
80
80
40
80
ENDCHAR
STARTCHAR fraction
ENCODING 8260
SWIDTH 443 0
DWIDTH 5 0
BBX 4 8 1 0
BITMAP
10
20
20
40
40
80
80
80
ENDCHAR
STARTCHAR Euro
ENCODING 8364
SWIDTH 621 0
DWIDTH 7 0
BBX 6 9 1 0
BITMAP
1C
60
40
F0
80
F0
40
60
1C
ENDCHAR
STARTCHAR trademark
ENCODING 8482
SWIDTH 851 0
DWIDTH 10 0
BBX 8 4 1 5
BITMAP
FB
9B
9D
95
ENDCHAR
STARTCHAR minus
ENCODING 8722
SWIDTH 499 0
DWIDTH 6 0
BBX 4 1 1 2
BITMAP
F0
ENDCHAR
STARTCHAR lessequal
ENCODING 8804
SWIDTH 567 0
DWIDTH 7 0
BBX 5 6 1 1
BITMAP
30
C0
C0
38
00
F8
ENDCHAR
STARTCHAR greaterequal
ENCODING 8805
SWIDTH 567 0
DWIDTH 7 0
BBX 5 6 1 1
BITMAP
E0
18
18
E0
00
F8
ENDCHAR
STARTCHAR uniF8FF
ENCODING 63743
SWIDTH 872 0
DWIDTH 10 0
BBX 9 9 1 0
BITMAP
3C00
C300
8100
8480
D480
8280
8100
4100
3E00
ENDCHAR
STARTCHAR fi
ENCODING 64257
SWIDTH 503 0
DWIDTH 6 0
BBX 5 9 0 0
BITMAP
38
48
40
F8
48
48
48
48
48
ENDCHAR
STARTCHAR fl
ENCODING 64258
SWIDTH 503 0
DWIDTH 6 0
BBX 5 9 0 0
BITMAP
38
48
48
E8
48
48
48
48
48
ENDCHAR
STARTCHAR .notdef
ENCODING -1
SWIDTH 520 0
DWIDTH 6 0
BBX 4 9 1 0
BITMAP
F0
90
90
90
90
90
90
90
F0
ENDCHAR
STARTCHAR i.loclTRK
ENCODING -1
SWIDTH 215 0
DWIDTH 3 0
BBX 1 8 1 0
BITMAP
80
00
80
80
80
80
80
80
ENDCHAR
STARTCHAR H_d_c_o.liga
ENCODING -1
SWIDTH 797 0
DWIDTH 10 0
BBX 9 9 0 0
BITMAP
1E00
6100
8080
A280
AC80
A280
8080
4100
3E00
ENDCHAR
STARTCHAR h_d_c_o.liga
ENCODING -1
SWIDTH 797 0
DWIDTH 10 0
BBX 9 9 0 0
BITMAP
1E00
6100
8080
A280
AC80
A280
8080
4100
3E00
ENDCHAR
STARTCHAR zero.lf
ENCODING -1
SWIDTH 563 0
DWIDTH 7 0
BBX 5 9 1 0
BITMAP
70
88
88
88
88
88
88
88
70
ENDCHAR
STARTCHAR one.lf
ENCODING -1
SWIDTH 288 0
DWIDTH 3 0
BBX 2 9 0 0
BITMAP
C0
40
40
40
40
40
40
40
40
ENDCHAR
STARTCHAR two.lf
ENCODING -1
SWIDTH 543 0
DWIDTH 7 0
BBX 6 9 0 0
BITMAP
38
44
84
04
08
18
10
20
7C
ENDCHAR
STARTCHAR three.lf
ENCODING -1
SWIDTH 508 0
DWIDTH 6 0
BBX 6 9 0 0
BITMAP
78
10
20
78
08
04
84
48
38
ENDCHAR
STARTCHAR four.lf
ENCODING -1
SWIDTH 571 0
DWIDTH 7 0
BBX 7 9 0 0
BITMAP
0C
14
14
24
24
44
FE
04
04
ENDCHAR
STARTCHAR five.lf
ENCODING -1
SWIDTH 523 0
DWIDTH 6 0
BBX 6 9 0 0
BITMAP
38
40
40
78
08
04
84
48
78
ENDCHAR
STARTCHAR six.lf
ENCODING -1
SWIDTH 518 0
DWIDTH 6 0
BBX 6 9 0 0
BITMAP
08
10
20
70
48
84
84
44
38
ENDCHAR
STARTCHAR seven.lf
ENCODING -1
SWIDTH 501 0
DWIDTH 6 0
BBX 6 9 0 0
BITMAP
FC
08
08
10
10
10
20
20
40
ENDCHAR
STARTCHAR eight.lf
ENCODING -1
SWIDTH 529 0
DWIDTH 6 0
BBX 6 9 0 0
BITMAP
38
48
48
48
78
44
84
44
78
ENDCHAR
STARTCHAR nine.lf
ENCODING -1
SWIDTH 518 0
DWIDTH 6 0
BBX 6 9 0 0
BITMAP
38
44
84
84
48
38
10
20
40
ENDCHAR
STARTCHAR endash.case
ENCODING -1
SWIDTH 499 0
DWIDTH 6 0
BBX 6 1 0 4
BITMAP
FC
ENDCHAR
STARTCHAR emdash.case
ENCODING -1
SWIDTH 1000 0
DWIDTH 12 0
BBX 12 1 0 4
BITMAP
FFF0
ENDCHAR
STARTCHAR uni030C.alt
ENCODING -1
SWIDTH 0 0
DWIDTH 0 0
BBX 2 3 -2 6
BITMAP
C0
80
80
ENDCHAR
STARTCHAR uni0308.case
ENCODING -1
SWIDTH 0 0
DWIDTH 0 0
BBX 3 1 -4 9
BITMAP
A0
ENDCHAR
STARTCHAR uni0307.case
ENCODING -1
SWIDTH 0 0
DWIDTH 0 0
BBX 1 1 -2 9
BITMAP
80
ENDCHAR
STARTCHAR gravecomb.case
ENCODING -1
SWIDTH 0 0
DWIDTH 0 0
BBX 1 1 -2 9
BITMAP
80
ENDCHAR
STARTCHAR acutecomb.case
ENCODING -1
SWIDTH 0 0
DWIDTH 0 0
BBX 1 1 -2 9
BITMAP
80
ENDCHAR
STARTCHAR uni0302.case
ENCODING -1
SWIDTH 0 0
DWIDTH 0 0
BBX 2 1 -3 9
BITMAP
C0
ENDCHAR
STARTCHAR uni030C.case
ENCODING -1
SWIDTH 0 0
DWIDTH 0 0
BBX 2 1 -3 9
BITMAP
C0
ENDCHAR
STARTCHAR uni0306.case
ENCODING -1
SWIDTH 0 0
DWIDTH 0 0
BBX 3 2 -4 9
BITMAP
80
E0
ENDCHAR
STARTCHAR uni030A.case
ENCODING -1
SWIDTH 0 0
DWIDTH 0 0
BBX 2 3 -3 8
BITMAP
40
C0
C0
ENDCHAR
STARTCHAR tildecomb.case
ENCODING -1
SWIDTH 0 0
DWIDTH 0 0
BBX 4 3 -5 8
BITMAP
40
B0
90
ENDCHAR
STARTCHAR uni0338.case
ENCODING -1
SWIDTH 0 0
DWIDTH 0 0
BBX 8 8 -8 1
BITMAP
01
02
04
08
10
20
40
80
ENDCHAR
ENDFONT
